<svg width="278" height="90" viewBox="0 0 278 90" fill="none" xmlns="http://www.w3.org/2000/svg">
<path d="M40.3786 37.5946V47H9.11772V39.6605L24.1229 26.6668C25.3552 25.5795 26.2251 24.619 26.7325 23.7854C27.2762 22.9518 27.548 22.0457 27.548 21.0671C27.548 19.9797 27.2037 19.0918 26.5151 18.4031C25.8627 17.7145 24.9203 17.3701 23.688 17.3701C22.4919 17.3701 21.5496 17.7688 20.8609 18.5662C20.1723 19.3273 19.828 20.3422 19.828 21.6107V23.4592H9.22645V21.2845C9.22645 17.3701 10.495 14.1444 13.0321 11.6073C15.5692 9.03391 19.1212 7.74723 23.688 7.74723C28.3998 7.74723 32.0605 8.90705 34.6701 11.2267C37.2797 13.5101 38.5845 16.609 38.5845 20.5234C38.5845 23.2417 37.914 25.5795 36.5729 27.5367C35.2681 29.4939 33.2022 31.6505 30.3751 34.0064L26.1345 37.5946H40.3786ZM62.9089 11.6073C65.6635 8.96142 69.451 7.6385 74.2716 7.6385C79.0921 7.6385 82.8796 8.96142 85.6342 11.6073C88.3888 14.2169 89.7661 17.7688 89.7661 22.2631V33.1365C89.7661 37.6308 88.3888 41.2009 85.6342 43.8467C82.8796 46.4563 79.0921 47.7611 74.2716 47.7611C69.451 47.7611 65.6635 46.4563 62.9089 43.8467C60.1543 41.2009 58.777 37.6308 58.777 33.1365V22.2631C58.777 17.7688 60.1543 14.2169 62.9089 11.6073ZM70.7921 36.5616C71.5895 37.5039 72.7493 37.9751 74.2716 37.9751C75.7938 37.9751 76.9355 37.5039 77.6967 36.5616C78.494 35.6192 78.8927 34.3688 78.8927 32.8103V22.5893C78.8927 21.0308 78.494 19.7804 77.6967 18.838C76.9355 17.8957 75.7938 17.4245 74.2716 17.4245C72.7493 17.4245 71.5895 17.8957 70.7921 18.838C70.0309 19.7804 69.6504 21.0308 69.6504 22.5893V32.8103C69.6504 34.3688 70.0309 35.6192 70.7921 36.5616ZM101.082 11.6073C103.837 8.96142 107.625 7.6385 112.445 7.6385C117.266 7.6385 121.053 8.96142 123.808 11.6073C126.562 14.2169 127.94 17.7688 127.94 22.2631V33.1365C127.94 37.6308 126.562 41.2009 123.808 43.8467C121.053 46.4563 117.266 47.7611 112.445 47.7611C107.625 47.7611 103.837 46.4563 101.082 43.8467C98.3278 41.2009 96.9505 37.6308 96.9505 33.1365V22.2631C96.9505 17.7688 98.3278 14.2169 101.082 11.6073ZM108.966 36.5616C109.763 37.5039 110.923 37.9751 112.445 37.9751C113.967 37.9751 115.109 37.5039 115.87 36.5616C116.668 35.6192 117.066 34.3688 117.066 32.8103V22.5893C117.066 21.0308 116.668 19.7804 115.87 18.838C115.109 17.8957 113.967 17.4245 112.445 17.4245C110.923 17.4245 109.763 17.8957 108.966 18.838C108.204 19.7804 107.824 21.0308 107.824 22.5893V32.8103C107.824 34.3688 108.204 35.6192 108.966 36.5616ZM139.256 11.6073C142.01 8.96142 145.798 7.6385 150.619 7.6385C155.439 7.6385 159.227 8.96142 161.981 11.6073C164.736 14.2169 166.113 17.7688 166.113 22.2631V33.1365C166.113 37.6308 164.736 41.2009 161.981 43.8467C159.227 46.4563 155.439 47.7611 150.619 47.7611C145.798 47.7611 142.01 46.4563 139.256 43.8467C136.501 41.2009 135.124 37.6308 135.124 33.1365V22.2631C135.124 17.7688 136.501 14.2169 139.256 11.6073ZM147.139 36.5616C147.936 37.5039 149.096 37.9751 150.619 37.9751C152.141 37.9751 153.283 37.5039 154.044 36.5616C154.841 35.6192 155.24 34.3688 155.24 32.8103V22.5893C155.24 21.0308 154.841 19.7804 154.044 18.838C153.283 17.8957 152.141 17.4245 150.619 17.4245C149.096 17.4245 147.936 17.8957 147.139 18.838C146.378 19.7804 145.997 21.0308 145.997 22.5893V32.8103C145.997 34.3688 146.378 35.6192 147.139 36.5616Z" fill="#AFFC41"/>
<path d="M175.869 24V10.4501H184.19C185.78 10.4501 187.015 10.8445 187.892 11.6333C188.783 12.4094 189.228 13.5481 189.228 15.0494C189.228 16.538 188.783 17.6767 187.892 18.4655C187.015 19.2544 185.78 19.6488 184.19 19.6488H179.762V24H175.869ZM183.713 13.809H179.762V16.2899H183.713C184.718 16.2899 185.221 15.8764 185.221 15.0494C185.221 14.2225 184.718 13.809 183.713 13.809ZM197.076 24H192.839L195.568 19.477L189.576 10.4501H194.251L197.782 15.7937L201.007 10.4501H205.244L197.076 24ZM214.675 15.4884C216.303 15.4884 217.569 15.8383 218.473 16.538C219.376 17.2251 219.828 18.2429 219.828 19.5915C219.828 21.0419 219.376 22.1425 218.473 22.8931C217.569 23.631 216.303 24 214.675 24H206.583V10.4501H218.606V13.809H210.476V15.4884H214.675ZM214.35 18.5419H210.476V20.6412H214.35C215.33 20.6412 215.82 20.2913 215.82 19.5915C215.82 18.8918 215.33 18.5419 214.35 18.5419ZM226.845 18.351C226.743 19.3943 226.59 20.2531 226.387 20.9274C226.183 21.6017 225.878 22.1997 225.471 22.7213C225.076 23.243 224.548 23.6183 223.887 23.8473C223.225 24.0763 222.392 24.1908 221.387 24.1908H221.081V20.2786H221.368C222.004 20.2786 222.449 20.1195 222.703 19.8014C222.958 19.4707 223.13 18.8981 223.219 18.0839L224.02 10.4501H235.337V24H231.425V13.8471H227.322L226.845 18.351ZM238.192 24V10.4501H249.871V13.599H242.104V15.3739H246.722V18.5991H242.104V20.6793H250.615V24H238.192ZM259.562 6.99585C259.842 6.99585 260.046 6.91952 260.173 6.76684C260.313 6.61417 260.383 6.42332 260.383 6.19431V6.04164H263.227V6.25157C263.227 7.21851 262.921 8.01369 262.311 8.63711C261.7 9.24781 260.784 9.55316 259.562 9.55316C258.341 9.55316 257.425 9.24781 256.814 8.63711C256.204 8.01369 255.898 7.21851 255.898 6.25157V6.04164H258.742V6.19431C258.742 6.72867 259.015 6.99585 259.562 6.99585ZM252.654 24V10.4501H256.566V18.6182L262.54 10.4501H266.452V24H262.54V15.8701L256.566 24H252.654ZM180.318 44.9389C178.664 44.9389 177.373 44.5254 176.444 43.6984C175.528 42.8587 175.07 41.6564 175.07 40.0915C175.07 38.5138 175.528 37.3115 176.444 36.4845C177.36 35.6575 178.645 35.244 180.299 35.244H183.085V33.2593H186.979V35.244H189.765C191.419 35.244 192.704 35.6575 193.62 36.4845C194.536 37.3115 194.994 38.5138 194.994 40.0915C194.994 41.6564 194.53 42.8587 193.601 43.6984C192.685 44.5254 191.4 44.9389 189.746 44.9389H186.979V47.1908H183.085V44.9389H180.318ZM183.085 41.58V38.6029H180.795C180.21 38.6029 179.777 38.7238 179.498 38.9655C179.23 39.2072 179.097 39.5826 179.097 40.0915C179.097 40.5622 179.243 40.9312 179.536 41.1984C179.828 41.4528 180.248 41.58 180.795 41.58H183.085ZM189.269 38.6029H186.979V41.58H189.269C189.816 41.58 190.236 41.4528 190.528 41.1984C190.821 40.9312 190.967 40.5622 190.967 40.0915C190.967 39.5826 190.827 39.2072 190.547 38.9655C190.28 38.7238 189.854 38.6029 189.269 38.6029ZM197.153 47V33.4501H205.474C207.064 33.4501 208.298 33.8445 209.176 34.6333C210.067 35.4094 210.512 36.5481 210.512 38.0494C210.512 39.538 210.067 40.6767 209.176 41.4655C208.298 42.2544 207.064 42.6488 205.474 42.6488H201.046V47H197.153ZM204.996 36.809H201.046V39.2899H204.996C206.002 39.2899 206.504 38.8764 206.504 38.0494C206.504 37.2225 206.002 36.809 204.996 36.809ZM212.677 47V33.4501H216.59V41.6182L222.563 33.4501H226.475V47H222.563V38.8701L216.59 47H212.677ZM237.431 38.4884C239.059 38.4884 240.325 38.8383 241.229 39.538C242.132 40.2251 242.584 41.2429 242.584 42.5915C242.584 44.0419 242.132 45.1425 241.229 45.8931C240.325 46.631 239.059 47 237.431 47H229.339V33.4501H241.362V36.809H233.232V38.4884H237.431ZM237.106 41.5419H233.232V43.6412H237.106C238.086 43.6412 238.576 43.2913 238.576 42.5915C238.576 41.8918 238.086 41.5419 237.106 41.5419ZM244.882 47V33.4501H256.562V36.599H248.795V38.3739H253.413V41.5991H248.795V43.6793H257.306V47H244.882ZM263.242 47V36.809H258.338V33.4501H272.04V36.809H267.136V47H263.242Z" fill="white"/>
<path d="M275.243 32L275.25 33.0436L274.349 32.6983L274 33.6634L274.977 34.0243L274.28 34.8639L275.106 35.5308L275.765 34.707L276.425 35.523L277.25 34.8561L276.553 34.0243L277.531 33.6634L277.182 32.6983L276.281 33.0436L276.288 32H275.243Z" fill="white"/>
<path d="M17.1602 67.3174C19.4535 67.3174 21.1628 67.7113 22.2883 68.4992C23.4279 69.287 23.9977 70.3211 23.9977 71.6014C23.9977 72.3892 23.7726 73.0575 23.3224 73.6062C22.8722 74.1549 22.3165 74.5417 21.6552 74.7668C22.4431 74.992 23.0973 75.3718 23.6178 75.9064C24.1384 76.427 24.3987 77.0812 24.3987 77.869C24.3987 79.4447 23.7726 80.6617 22.5205 81.5199C21.2683 82.3781 19.4675 82.8072 17.118 82.8072C15.8096 82.8072 14.6489 82.6243 13.636 82.2585C12.623 81.8927 11.8422 81.4284 11.2935 80.8657C10.7448 80.3029 10.3368 79.7472 10.0695 79.1985C9.80223 78.6358 9.65451 78.1082 9.62637 77.6158H13.9103C14.3324 78.5725 15.4016 79.0508 17.118 79.0508C19.0173 79.0508 19.967 78.6006 19.967 77.7002C19.967 76.9968 19.2073 76.645 17.6878 76.645H15.3876V73.2685H17.5401C18.9048 73.2685 19.5871 72.9238 19.5871 72.2345C19.5871 71.4607 18.7571 71.0738 17.0969 71.0738C15.5353 71.0738 14.5153 71.4185 14.037 72.1078H9.75299C9.90775 70.7572 10.6182 69.6247 11.8844 68.7102C13.1506 67.7817 14.9092 67.3174 17.1602 67.3174ZM37.939 82.554L37.0738 80.4436H30.4474L29.5821 82.554H25.1927L31.587 67.5706H36.2508L42.6029 82.554H37.939ZM31.9246 76.8983H35.5966L33.7606 72.4244L31.9246 76.8983Z" fill="white"/>
<path d="M49.5636 82.554V67.5706H64.3992V82.554H60.0731V71.327H53.8898V82.554H49.5636ZM67.555 82.554V67.5706H80.4702V71.0527H71.8812V73.0153H76.9882V76.5817H71.8812V78.882H81.2932V82.554H67.555ZM83.5473 82.554V67.5706H92.7483C94.507 67.5706 95.8716 68.0068 96.8424 68.879C97.8272 69.7372 98.3196 70.9964 98.3196 72.6565C98.3196 74.3026 97.8272 75.5617 96.8424 76.434C95.8716 77.3063 94.507 77.7424 92.7483 77.7424H87.8524V82.554H83.5473ZM92.2208 71.2848H87.8524V74.0282H92.2208C93.3322 74.0282 93.8879 73.571 93.8879 72.6565C93.8879 71.742 93.3322 71.2848 92.2208 71.2848ZM100.714 82.554V67.5706H110C111.604 67.5706 112.842 67.9435 113.714 68.6891C114.586 69.4207 115.022 70.4055 115.022 71.6436C115.022 72.3611 114.825 72.9731 114.431 73.4795C114.052 73.986 113.58 74.3659 113.018 74.6191C113.707 74.8724 114.277 75.3085 114.727 75.9275C115.191 76.5466 115.423 77.3344 115.423 78.2911C115.423 79.6136 114.966 80.6547 114.052 81.4144C113.137 82.1741 111.829 82.554 110.126 82.554H100.714ZM109.156 70.9472H104.956V73.1841H109.156C110.126 73.1841 110.612 72.8113 110.612 72.0656C110.612 71.32 110.126 70.9472 109.156 70.9472ZM109.219 76.5606H104.956V79.1774H109.219C110.401 79.1774 110.992 78.7413 110.992 77.869C110.992 76.9968 110.401 76.5606 109.219 76.5606ZM123.773 82.554H119.088L122.106 77.5525L115.479 67.5706H120.65L124.554 73.4795L128.12 67.5706H132.805L123.773 82.554ZM134.286 82.554V67.5706H138.612V73.1841H139.942C140.321 71.3833 141.208 69.9553 142.601 68.9001C144.007 67.845 145.668 67.3174 147.581 67.3174C149.818 67.3174 151.682 68.0279 153.173 69.4488C154.665 70.8698 155.41 72.7409 155.41 75.0623C155.41 77.3555 154.665 79.2196 153.173 80.6547C151.682 82.0897 149.818 82.8072 147.581 82.8072C145.668 82.8072 144.014 82.2796 142.622 81.2244C141.229 80.1552 140.335 78.7272 139.942 76.9405H138.612V82.554H134.286ZM145.07 77.869C145.689 78.6006 146.526 78.9664 147.581 78.9664C148.636 78.9664 149.473 78.6006 150.092 77.869C150.711 77.1234 151.021 76.1878 151.021 75.0623C151.021 73.9368 150.711 73.0082 150.092 72.2767C149.473 71.531 148.636 71.1582 147.581 71.1582C146.54 71.1582 145.703 71.531 145.07 72.2767C144.451 73.0082 144.141 73.9368 144.141 75.0623C144.141 76.1878 144.451 77.1234 145.07 77.869ZM170.251 82.8072C167.958 82.8072 166.079 82.0826 164.616 80.6336C163.167 79.1704 162.443 77.3133 162.443 75.0623C162.443 72.7972 163.167 70.9401 164.616 69.491C166.079 68.0419 167.958 67.3174 170.251 67.3174C171.222 67.3174 172.108 67.451 172.91 67.7184C173.726 67.9716 174.387 68.2952 174.893 68.6891C175.414 69.069 175.864 69.5121 176.244 70.0186C176.624 70.511 176.898 70.9683 177.067 71.3903C177.25 71.8124 177.37 72.2134 177.426 72.5932H173.036C172.431 71.6506 171.503 71.1793 170.251 71.1793C169.21 71.1793 168.38 71.5521 167.761 72.2978C167.156 73.0293 166.853 73.9509 166.853 75.0623C166.853 76.1737 167.156 77.1023 167.761 77.8479C168.38 78.5795 169.21 78.9453 170.251 78.9453C171.517 78.9453 172.453 78.481 173.057 77.5525H177.426C177.37 77.8761 177.264 78.2419 177.109 78.6499C176.955 79.0438 176.687 79.494 176.307 80.0005C175.942 80.5069 175.505 80.9642 174.999 81.3722C174.493 81.7661 173.824 82.1038 172.994 82.3851C172.164 82.6665 171.25 82.8072 170.251 82.8072ZM184.223 82.554V71.2848H178.8V67.5706H193.952V71.2848H188.528V82.554H184.223ZM205.797 82.554L204.931 80.4436H198.305L197.44 82.554H193.05L199.444 67.5706H204.108L210.46 82.554H205.797ZM199.782 76.8983H203.454L201.618 72.4244L199.782 76.8983ZM212.248 82.554V67.5706H221.534C223.138 67.5706 224.376 67.9435 225.248 68.6891C226.12 69.4207 226.556 70.4055 226.556 71.6436C226.556 72.3611 226.359 72.9731 225.966 73.4795C225.586 73.986 225.114 74.3659 224.552 74.6191C225.241 74.8724 225.811 75.3085 226.261 75.9275C226.725 76.5466 226.957 77.3344 226.957 78.2911C226.957 79.6136 226.5 80.6547 225.586 81.4144C224.671 82.1741 223.363 82.554 221.66 82.554H212.248ZM220.69 70.9472H216.49V73.1841H220.69C221.66 73.1841 222.146 72.8113 222.146 72.0656C222.146 71.32 221.66 70.9472 220.69 70.9472ZM220.753 76.5606H216.49V79.1774H220.753C221.935 79.1774 222.526 78.7413 222.526 77.869C222.526 76.9968 221.935 76.5606 220.753 76.5606ZM229.436 82.554V67.5706H233.762V73.8172L239.756 67.5706H245.285L238.405 74.7246L245.601 82.554H239.756L233.762 76.0119V82.554H229.436ZM253.999 82.554H249.314L252.332 77.5525L245.705 67.5706H250.876L254.78 73.4795L258.346 67.5706H263.031L253.999 82.554ZM264.575 77.4681V67.5706H268.712V77.4681H264.575ZM264.301 82.554V78.5021H268.986V82.554H264.301Z" fill="#AFFC41"/>
</svg>
